<svg xmlns="http://www.w3.org/2000/svg" enable-background="new 0 0 24 24" viewBox="0 0 24 24" width="288" height="288"><path d="M14.5,21h-8c-0.828064-0.0009155-1.4990845-0.671936-1.5-1.5v-15C5.0009155,3.671936,5.671936,3.0009155,6.5,3H13v3.6669922C13.0016479,7.9547729,14.0452271,8.9983521,15.3330078,9H19v4.5c0,0.276123,0.223877,0.5,0.5,0.5s0.5-0.223877,0.5-0.5v-5c0-0.1326294-0.0526733-0.2597656-0.1464844-0.3535156l-6-6C13.7597656,2.0526733,13.6326294,2,13.5,2h-7C5.119812,2.0012817,4.0012817,3.119812,4,4.5v15c0.0012817,1.380188,1.119812,2.4987183,2.5,2.5h8c0.276123,0,0.5-0.223877,0.5-0.5S14.776123,21,14.5,21z M14,3.7069702L18.2930298,8h-2.960022C14.5970459,7.9993896,14.0006104,7.4029541,14,6.6669922V3.7069702z M8.5,8C8.223877,8,8,8.223877,8,8.5S8.223877,9,8.5,9h2C10.776123,9,11,8.776123,11,8.5S10.776123,8,10.5,8H8.5z M14.5,16h-6C8.223877,16,8,16.223877,8,16.5S8.223877,17,8.5,17h6c0.276123,0,0.5-0.223877,0.5-0.5S14.776123,16,14.5,16z M21.5,19H20v-1.5c0-0.276123-0.223877-0.5-0.5-0.5S19,17.223877,19,17.5V19h-1.5c-0.276123,0-0.5,0.223877-0.5,0.5s0.223877,0.5,0.5,0.5H19v1.5c0,0.0001831,0,0.0003662,0,0.0005493C19.0001831,21.7765503,19.223999,22.0001831,19.5,22c0.0001831,0,0.0003662,0,0.0006104,0C19.7765503,21.9998169,20.0001831,21.776001,20,21.5V20h1.5c0.276123,0,0.5-0.223877,0.5-0.5S21.776123,19,21.5,19z M15.5,12h-7C8.223877,12,8,12.223877,8,12.5S8.223877,13,8.5,13h7c0.276123,0,0.5-0.223877,0.5-0.5S15.776123,12,15.5,12z" fill="#ed123b" class="svgShape color000000-0 selectable"></path></svg>