<svg xmlns="http://www.w3.org/2000/svg" enable-background="new 0 0 100 100" viewBox="0 0 100 100" width="288" height="288"><path d="M93,12H80V7c0-1.104-0.896-2-2-2h-8c-1.104,0-2,0.896-2,2v5H32V7c0-1.104-0.896-2-2-2h-8c-1.104,0-2,0.896-2,2v5H7c-1.104,0-2,0.896-2,2v14v43v18c0,2.645,3.767,6,8,6h74c4.411,0,8-3.589,8-8v-7V28V14C95,12.896,94.104,12,93,12z M72,9h4v3h-4V9z M24,9h4v3h-4V9z M20,16v5c0,1.104,0.896,2,2,2s2-0.896,2-2v-5h44v5c0,1.104,0.896,2,2,2s2-0.896,2-2v-5h19v10H9V16H20z M91,80c0,2.206-1.794,4-4,4H24V71c0-1.104-0.896-2-2-2H9V30h82V80z M11.828,73H20v8.172L11.828,73z M87,91H13c-2.071,0-3.717-1.529-4-2.142v-13.03l11.585,11.585c0.092,0.093,0.194,0.176,0.303,0.249c0.027,0.018,0.057,0.029,0.084,0.046c0.084,0.051,0.168,0.1,0.259,0.138c0.038,0.016,0.079,0.023,0.118,0.037c0.084,0.029,0.166,0.06,0.255,0.077C21.734,87.986,21.866,88,22,88h65c1.458,0,2.822-0.398,4-1.082V87C91,89.206,89.206,91,87,91z" fill="#ed123b" class="svgShape color000000-0 selectable"></path><path d="M35,59h13v13c0,1.104,0.896,2,2,2s2-0.896,2-2V59h13c1.104,0,2-0.896,2-2s-0.896-2-2-2H52V42c0-1.104-0.896-2-2-2s-2,0.896-2,2v13H35c-1.104,0-2,0.896-2,2S33.896,59,35,59z" fill="#ed123b" class="svgShape color000000-1 selectable"></path></svg>