<svg xmlns="http://www.w3.org/2000/svg" viewBox="0 0 100 100" id="DeleteFile">
  <path d="M81.02 27.74 62.25 8.97c-2.23-2.23-6.44-3.98-9.6-3.98H22.23c-3.58 0-6.51 2.91-6.54 6.49l-.66 77c-.01 1.73.65 3.37 1.87 4.6s2.85 1.91 4.58 1.91h57c3.58 0 6.5-2.92 6.5-6.5V37.33c0-3.15-1.75-7.37-3.98-9.6ZM60.14 11.1l18.77 18.77c.27.27.54.61.8.98H62.67c-1.93 0-3.5-1.57-3.5-3.5V10.3c.36.26.7.52.98.8ZM82 88.5c0 1.93-1.57 3.5-3.5 3.5h-57c-.93 0-1.8-.36-2.45-1.02a3.4 3.4 0 0 1-1-2.46l.66-77a3.553 3.553 0 0 1 3.54-3.51h30.42c1.03 0 2.28.29 3.5.75v18.59c0 3.58 2.92 6.5 6.5 6.5h18.59c.46 1.22.75 2.47.75 3.5v51.16Z" fill="#ef3054" class="color000000 svgShape"></path>
  <path d="M50 39.8c-11.71 0-21.24 9.53-21.24 21.24S38.29 82.28 50 82.28s21.24-9.53 21.24-21.24S61.71 39.8 50 39.8m0 39.48c-10.06 0-18.24-8.18-18.24-18.24S39.94 42.8 50 42.8s18.24 8.18 18.24 18.24S60.06 79.28 50 79.28" fill="#ef3054" class="color000000 svgShape"></path>
  <path d="M57.44 53.6a1.49 1.49 0 0 0-2.12 0l-5.31 5.31-5.31-5.31a1.49 1.49 0 0 0-2.12 0 1.49 1.49 0 0 0 0 2.12l5.31 5.31-5.31 5.31a1.49 1.49 0 0 0 0 2.12c.29.29.68.44 1.06.44s.77-.15 1.06-.44l5.31-5.31 5.31 5.31c.29.29.68.44 1.06.44s.77-.15 1.06-.44c.59-.59.59-1.54 0-2.12l-5.31-5.31 5.31-5.31c.59-.59.59-1.54 0-2.12" fill="#ef3054" class="color000000 svgShape"></path>
</svg>
