<svg xmlns="http://www.w3.org/2000/svg" enable-background="new 0 0 32 32" viewBox="0 0 32 32" id="Exit">
  <g id="design" fill="#ef3054" class="color000000 svgShape">
    <path d="M19.7,18.5c-0.7,0-1.2,0.6-1.2,1.2V23H14V9.6c0-0.4-0.2-0.9-0.6-1.1l-3.3-1.9h8.4v5.7c0,0.7,0.6,1.2,1.2,1.2
		c0.7,0,1.2-0.6,1.2-1.2v-7c0-0.7-0.6-1.2-1.2-1.2H5.7C5.3,4,5,4,4.7,4.2C4.3,4.4,4.1,4.8,4.1,5.2v17.2c0,0.4,0.2,0.9,0.6,1.1
		l7.5,4.3c0.2,0.1,0.4,0.2,0.6,0.2c0.2,0,0.4-0.1,0.6-0.2c0.4-0.2,0.6-0.6,0.6-1.1v-1.2h5.7c0.7,0,1.2-0.6,1.2-1.2v-4.5
		C21,19.1,20.4,18.5,19.7,18.5z M11.5,24.6l-5-2.9V7.4l5,2.9V24.6z" fill="#ef3054" class="color000000 svgShape"></path>
    <path d="M27.6,15.1l-3.7-3.7c-0.5-0.5-1.3-0.5-1.8,0c-0.5,0.5-0.5,1.3,0,1.8l1.6,1.6h-6.4c-0.7,0-1.2,0.6-1.2,1.2
		c0,0.7,0.6,1.2,1.2,1.2h6.4l-1.6,1.6c-0.5,0.5-0.5,1.3,0,1.8c0.2,0.2,0.6,0.4,0.9,0.4s0.6-0.1,0.9-0.4l3.7-3.7
		C28.1,16.4,28.1,15.6,27.6,15.1z" fill="#ef3054" class="color000000 svgShape"></path>
  </g>
</svg>
