<svg xmlns="http://www.w3.org/2000/svg" xml:space="preserve" id="checkmessage" x="0" y="0" version="1.1" viewBox="0 0 64 64" enable-background="new 0 0 64 64">
  <g fill="#000000" class="color000000 svgShape">
    <path d="M49.13,13.6c0.09,0.09,0.22,0.15,0.35,0.15s0.26-0.05,0.35-0.15l6.04-6.04c0.2-0.2,0.2-0.51,0-0.71
		s-0.51-0.2-0.71,0l-5.69,5.69l-2.28-2.28c-0.2-0.2-0.51-0.2-0.71,0s-0.2,0.51,0,0.71L49.13,13.6z" fill="#ef3054" class="color4d4d4d svgShape"></path>
    <path d="M56.15,32.83c-0.01-0.01-0.03-0.01-0.04-0.02c0,0,0,0-0.01,0c-0.64-0.4-1.38-0.64-1.97-0.64l-3.99-0.01V18.89
		c0.34,0.04,0.69,0.07,1.04,0.07c4.81,0,8.73-3.91,8.73-8.73S56,1.5,51.19,1.5s-8.73,3.91-8.73,8.73c0,0.11,0.01,0.21,0.02,0.32H14
		c-1.43,0-2.59,1.16-2.59,2.59v18.94l-3.98-0.01c-0.63,0-1.41,0.29-2.07,0.76c0,0-0.01,0-0.01,0.01c-0.02,0.02-0.04,0.03-0.07,0.04
		c-0.03,0.02-0.05,0.05-0.08,0.07c0,0-0.01,0-0.01,0.01c0,0,0,0,0,0c-0.7,0.54-1.11,1.2-1.11,1.82v25.27c0,0.57,0.19,1.12,0.54,1.55
		C5.1,62.16,5.8,62.5,6.56,62.5H55c0.76,0,1.46-0.34,1.91-0.92c0.02-0.02,0.03-0.04,0.04-0.06c0-0.01,0.01-0.01,0.02-0.02
		c0,0,0-0.01,0-0.01c0.32-0.41,0.5-0.93,0.5-1.47V34.76C57.48,34.07,57,33.37,56.15,32.83z M56.48,60.03c0,0.2-0.05,0.38-0.13,0.56
		l-19.13-10.7l17.24-14.75l1.44-1.24c0.35,0.29,0.57,0.61,0.57,0.87V60.03z M54.13,33.17c0.24,0,0.55,0.08,0.85,0.2l-4.84,4.14
		v-4.35L54.13,33.17z M51.19,2.5c4.26,0,7.73,3.47,7.73,7.73s-3.47,7.73-7.73,7.73s-7.73-3.47-7.73-7.73S46.93,2.5,51.19,2.5z
		 M14,11.54h28.57c0.54,3.51,3.16,6.34,6.58,7.16v19.66l-12.85,11l-5.27-2.95c-0.15-0.08-0.34-0.08-0.49,0l-5.73,3.21l-12.4-10.97
		V32.6c0-0.01,0-0.02,0-0.02c0-0.01,0-0.02,0-0.02V13.14C12.41,12.26,13.12,11.54,14,11.54z M5.21,60.59
		c-0.07-0.18-0.12-0.36-0.12-0.56V34.76c0-0.24,0.18-0.54,0.48-0.83l5.98,5.29c0,0.01,0.01,0.01,0.02,0.01l12.32,10.9L5.21,60.59z
		 M11.41,33.07v4.69l-4.99-4.41c0.36-0.18,0.73-0.29,1.01-0.29L11.41,33.07z M6.56,61.5c-0.24,0-0.46-0.05-0.66-0.15l24.88-13.92
		l24.88,13.92c-0.2,0.1-0.42,0.16-0.65,0.16H6.56z" fill="#ef3054" class="color4d4d4d svgShape"></path>
    <path d="M16.96 18.31h21.57c.28 0 .5-.22.5-.5s-.22-.5-.5-.5H16.96c-.28 0-.5.22-.5.5S16.68 18.31 16.96 18.31zM16.96 24.77H44.6c.28 0 .5-.22.5-.5s-.22-.5-.5-.5H16.96c-.28 0-.5.22-.5.5S16.68 24.77 16.96 24.77zM16.96 31.22H44.6c.28 0 .5-.22.5-.5s-.22-.5-.5-.5H16.96c-.28 0-.5.22-.5.5S16.68 31.22 16.96 31.22zM16.96 37.68H44.6c.28 0 .5-.22.5-.5s-.22-.5-.5-.5H16.96c-.28 0-.5.22-.5.5S16.68 37.68 16.96 37.68z" fill="#ef3054" class="color4d4d4d svgShape"></path>
  </g>
</svg>
