<svg width="10" height="10" viewBox="0 0 10 10" fill="none" xmlns="http://www.w3.org/2000/svg">
<g opacity="0.4" clip-path="url(#clip0_143_322)">
<path d="M4.99988 0C4.01097 0 3.04427 0.293245 2.22203 0.842652C1.39978 1.39206 0.758921 2.17295 0.380483 3.08658C0.00204436 4.00021 -0.0969723 5.00555 0.0959538 5.97545C0.28888 6.94536 0.765084 7.83627 1.46435 8.53553C2.16361 9.2348 3.05452 9.711 4.02443 9.90392C4.99433 10.0969 5.99967 9.99783 6.9133 9.6194C7.82693 9.24096 8.60782 8.6001 9.15723 7.77785C9.70664 6.95561 9.99988 5.98891 9.99988 5C9.99845 3.67436 9.4712 2.40342 8.53383 1.46605C7.59646 0.528678 6.32552 0.00143378 4.99988 0V0ZM7.16655 7.17542C7.091 7.25537 6.9873 7.30278 6.87741 7.3076C6.76751 7.31242 6.66006 7.27428 6.5778 7.20125L4.51155 5.30708C4.46869 5.26819 4.4344 5.2208 4.41087 5.16793C4.38734 5.11506 4.37509 5.05787 4.37488 5V2.70833C4.37488 2.59783 4.41878 2.49185 4.49692 2.41371C4.57506 2.33557 4.68104 2.29167 4.79155 2.29167C4.90205 2.29167 5.00803 2.33557 5.08617 2.41371C5.16432 2.49185 5.20821 2.59783 5.20821 2.70833V4.81667L7.13905 6.58667C7.17958 6.62352 7.21245 6.668 7.23578 6.71757C7.2591 6.76714 7.27243 6.82082 7.27498 6.87555C7.27753 6.93027 7.26927 6.98496 7.25067 7.03649C7.23206 7.08801 7.20347 7.13537 7.16655 7.17583V7.17542Z" fill="#1F1F1F"/>
</g>
<defs>
<clipPath id="clip0_143_322">
<rect width="10" height="10" fill="white"/>
</clipPath>
</defs>
</svg>
