<svg width="24" height="24" viewBox="0 0 24 24" fill="none" xmlns="http://www.w3.org/2000/svg">
<g opacity="0.4">
<path d="M11.9998 2.00049C17.523 2.00049 21.9998 6.47727 21.9998 12.0005C21.9998 17.5237 17.523 22.0005 11.9998 22.0005C6.47654 22.0005 1.99976 17.5237 1.99976 12.0005C1.99976 6.47727 6.47654 2.00049 11.9998 2.00049ZM11.9998 3.50049C7.30497 3.50049 3.49976 7.3057 3.49976 12.0005C3.49976 16.6953 7.30497 20.5005 11.9998 20.5005C16.6945 20.5005 20.4998 16.6953 20.4998 12.0005C20.4998 7.3057 16.6945 3.50049 11.9998 3.50049ZM11.6614 7.09689C12.0411 7.09689 12.3548 7.37904 12.4045 7.74512L12.4114 7.84689L12.411 12.267L15.8156 14.2988C16.1417 14.4933 16.2666 14.8964 16.1217 15.2362L16.0755 15.3271C15.8809 15.6532 15.4779 15.7781 15.138 15.6332L15.0471 15.587L11.2771 13.338C11.0827 13.222 10.9528 13.0257 10.9197 12.8056L10.9114 12.6939V7.84689C10.9114 7.43267 11.2471 7.09689 11.6614 7.09689Z" fill="#1F1F1F"/>
</g>
</svg>
