<svg xmlns="http://www.w3.org/2000/svg" viewBox="0 0 64 64" id="block"><path d="M58.946 2.685c-.008-.024-.021-.045-.031-.069-.02-.048-.037-.097-.064-.142-.012-.02-.03-.035-.044-.054a.986.986 0 0 0-.221-.221c-.023-.017-.044-.036-.069-.051a.983.983 0 0 0-.277-.117l-.009-.004c-.014-.003-.028 0-.042-.003A.998.998 0 0 0 58 2H40c-.379 0-.725.214-.895.553l-4 8c-.006.012-.008.025-.013.038-.01.021-.015.044-.023.066a1.035 1.035 0 0 0-.062.305c0 .013-.007.024-.007.038v8h-6V3c0-.007-.003-.012-.003-.019a.994.994 0 0 0-.051-.296c-.008-.024-.021-.045-.031-.069-.02-.048-.037-.097-.064-.142-.012-.02-.03-.035-.044-.054a.986.986 0 0 0-.221-.221c-.023-.017-.044-.036-.069-.051a.983.983 0 0 0-.277-.117l-.009-.004c-.014-.003-.028 0-.042-.003C28.126 2.012 28.064 2 28 2H10c-.379 0-.725.214-.895.553l-4 8c-.006.012-.008.025-.013.038-.01.021-.015.044-.023.066a1.035 1.035 0 0 0-.062.305c0 .013-.007.024-.007.038v18a1 1 0 0 0 1 1h8v4h-4c-.379 0-.725.214-.895.553l-4 8c-.006.012-.008.025-.013.038-.01.021-.015.044-.023.066a1.035 1.035 0 0 0-.062.305c0 .013-.007.024-.007.038v18a1 1 0 0 0 1 1h18a.998.998 0 0 0 .347-.07c.033-.012.062-.027.092-.042.078-.039.149-.087.216-.145.023-.02.047-.037.068-.059.076-.081.143-.171.19-.276l.007-.016.001-.002L28.65 53H35v8a1 1 0 0 0 1 1h18a.998.998 0 0 0 .347-.07c.033-.012.062-.027.092-.042.078-.039.149-.087.216-.145.023-.02.047-.037.068-.059.076-.081.143-.171.19-.276l.007-.016.001-.002 3.992-8.982A.997.997 0 0 0 59 52V35c0-.007-.003-.012-.003-.019a.994.994 0 0 0-.051-.296c-.008-.024-.021-.045-.031-.069-.02-.048-.037-.097-.064-.142-.012-.02-.03-.035-.044-.054a.986.986 0 0 0-.221-.221c-.023-.017-.044-.036-.069-.051a.983.983 0 0 0-.277-.117l-.009-.004c-.014-.003-.027 0-.041-.003-.063-.012-.125-.024-.19-.024H46v-4h8a.998.998 0 0 0 .347-.07c.033-.012.062-.027.092-.042.078-.039.149-.087.216-.145.023-.02.047-.037.068-.059.076-.081.143-.171.19-.276l.007-.016.001-.002 3.992-8.982A.997.997 0 0 0 59 20V3c0-.007-.003-.012-.003-.019a1 1 0 0 0-.051-.296zM40.618 4h15.764l-3 6H37.618l3-6zM25 21h1.461L25 24.288V21zm0-2v-7.764l2-4V19h-2zM10.618 4h15.764l-3 6H7.618l3-6zM7 12h16v7h-9v2h9v7H7V12zm3.618 24H14v6H7.618l3-6zM27 51h-2v-7.764l2-4V51zm-3.618-9H16v-6h10.382l-3 6zM7 44h7v9h2v-9h7v16H7V44zm18 12.288V53h1.461L25 56.288zM37 53h9v-2h-9v-7h16v16H37v-7zm.618-11 3-6H44v6h-6.382zM55 56.288V43.236l2-4v12.551l-2 4.501zM56.382 36l-3 6H46v-6h10.382zM44 34h-4c-.379 0-.725.214-.895.553l-4 8c-.006.012-.008.025-.013.038-.01.021-.015.044-.023.066a1.035 1.035 0 0 0-.062.305c0 .013-.007.024-.007.038v8h-6V35c0-.007-.003-.012-.003-.019a.994.994 0 0 0-.051-.296c-.008-.024-.021-.045-.031-.069-.02-.048-.037-.097-.064-.142-.012-.02-.03-.035-.044-.054a.986.986 0 0 0-.221-.221c-.023-.017-.044-.036-.069-.051a.983.983 0 0 0-.277-.117l-.009-.004c-.014-.003-.027 0-.041-.003-.063-.012-.125-.024-.19-.024H16v-4h8a.998.998 0 0 0 .347-.07c.033-.012.062-.027.092-.042.078-.039.149-.087.216-.145.023-.02.047-.037.068-.059.076-.081.143-.171.19-.276l.007-.016.001-.002L28.65 21H35v8a1 1 0 0 0 1 1h8v4zm0-15v9h-7V12h16v16h-7v-9h-2zm11 5.288V11.236l2-4v12.551l-2 4.501z"></path></svg>