<svg xmlns="http://www.w3.org/2000/svg" viewBox="0 0 64 64" id="deadline"><path fill="#2e79be" d="m44 39.4 2.1-5.6-1.7.5c-.2.1-.3.1-.5.2h-.1c-.7-1.6-1.6-2.9-2.7-4-2.8-2.8-6-4.2-9.5-4.2-1.2 0-2.5.2-3.8.5-3.3.9-6.1 2.9-7.9 5.8-1.8 2.8-2.4 6.3-1.8 9.7.5 3.1 2.2 5.9 4.7 8 2.4 2 5.5 3.1 8.6 3.1.6 0 1.1 0 1.7-.1 3.5-.4 6.4-2 8.7-4.7.9-1.1 1.7-2.3 2.1-3.5.2-.4.1-1.1-.3-1.5-.3-.3-.7-.4-1.1-.4h-.4c-.5.1-.8.6-.9.9-1.7 3.9-5.6 6.4-9.9 6.4-.7 0-1.4-.1-2.1-.2-2.8-.6-5.3-2.2-6.9-4.6-1.6-2.4-2.1-5.3-1.5-8.2 1-4.6 5-8.1 9.6-8.5h.9c3.4 0 6.2 1.4 8.5 4.1.5.6 1 1.3 1.3 2.1l-2.1.9 5 3.3z"></path><path fill="#2e79be" d="M37.1 44.6c0 .3-.1.6-.3.8-.2.2-.5.4-.9.4-.3 0-.6-.1-.8-.3l-3-2.5c-.2 0-.4.1-.6.1-1.5 0-2.6-1.2-2.6-2.6 0-.9.4-1.7 1.1-2.2l.3-5.4c0-.6.5-1.2 1.2-1.2.6 0 1.2.5 1.2 1.2l.3 5.4c.7.5 1.1 1.3 1.1 2.2v.4l2.6 2.9c.2.2.4.5.4.8z"></path><path fill="#2d3e50" d="M40.1 10.4V5.9H24v4.5h16.1z"></path><path fill="#2d3e50" d="M56.9 5.9c-1.2-.2-2.4-.1-3.6-.1h-4.7V3.6c0-1.8-1.4-3-3-2.5-1 .3-1.6 1.1-1.7 2v7.5c0 1.1.9 2 2 2.1 1.2.1 2.2-.5 2.6-1.6.1-.3.1-.6.2-1h6.7c1.8 0 2.8 1 2.8 2.8v4.6H5.9v-4.6c0-1.8 1-2.8 2.8-2.8h6.7c0 .3.1.6.2 1 .3 1.1 1.4 1.7 2.6 1.6 1-.1 1.9-1 2-2.1V3.1c0-1-.7-1.8-1.7-2-1.6-.5-3 .7-3 2.5v2.2h-4.7c-1.2 0-2.4-.1-3.6.1-3.6.6-5.9 3.5-5.9 7.2v42.4c0 4.3 3.1 7.4 7.4 7.4h47c4.3 0 7.3-3.1 7.4-7.4V13.2c-.3-3.7-2.6-6.6-6.2-7.3zm1.2 49.6c0 1.8-1 2.8-2.8 2.8H8.7c-1.8 0-2.8-1-2.8-2.8V21.6h52.2v33.9z"></path></svg>