<svg xmlns="http://www.w3.org/2000/svg" viewBox="0 0 64 64" id="car-steering">
  <circle cx="32" cy="32" r="31" fill="none" stroke="#000" stroke-miterlimit="10" stroke-width="2"></circle>
  <circle cx="32" cy="32" r="24.5" fill="none" stroke="#000" stroke-miterlimit="10" stroke-width="2"></circle>
  <path fill="none" stroke="#000" stroke-linecap="round" stroke-linejoin="round" stroke-miterlimit="10" stroke-width="2" d="M56.3 28.9c-4.1.3-19.5 3.1-21.1 27.4-1.1.2-2.2.2-3.3.2-1 0-1.9-.1-2.9-.2C27.6 32 11.8 29.2 7.7 28.9c.3-2.5 1-4.9 2.1-7.2 9-.6 35.5-.6 44.6 0 .9 2.3 1.6 4.7 1.9 7.2z"></path>
  <path fill="none" stroke="#000" stroke-miterlimit="10" stroke-width="2" d="M40.4 29.4c0 3.3-3.7 8-8.4 8s-8.4-4.7-8.4-8 3.7-3.8 8.4-3.8 8.4.5 8.4 3.8z"></path>
</svg>
