<svg id="SvgjsSvg1001" width="288" height="288" xmlns="http://www.w3.org/2000/svg" version="1.1" xmlns:xlink="http://www.w3.org/1999/xlink" xmlns:svgjs="http://svgjs.com/svgjs"><defs id="SvgjsDefs1002"></defs><g id="SvgjsG1008"><svg xmlns="http://www.w3.org/2000/svg" data-name="Layer 1" viewBox="0 0 64 64" width="288" height="288"><path fill="#00a001" d="M30,56.41a22.37,22.37,0,0,1-5.71-44,2,2,0,0,1,1,3.87A18.36,18.36,0,1,0,48,37.51a2,2,0,1,1,3.93.75A22.37,22.37,0,0,1,30,56.41Z" class="color20263b svgShape"></path><path fill="#ef3054" d="M50.73,33.06H33.88a3.62,3.62,0,0,1-3.62-3.62V13.23a3.59,3.59,0,0,1,4.13-3.59,24.59,24.59,0,0,1,19.88,19A3.64,3.64,0,0,1,50.73,33.06Z" class="colorff4b07 svgShape"></path></svg></g></svg>