<svg width="24" height="25" viewBox="0 0 24 25" fill="none" xmlns="http://www.w3.org/2000/svg">
<g clip-path="url(#clip0_1938_731)">
<path d="M20.9348 16.5377C20.8786 16.4092 20.7877 16.2988 20.6723 16.219C19.0814 15.1259 18.7505 13.2612 18.7505 11.8887C18.7505 10.2321 20.0133 8.7893 20.7661 8.07586C20.8401 8.00577 20.8991 7.92132 20.9394 7.82767C20.9797 7.73402 21.0005 7.63313 21.0005 7.53117C21.0005 7.42922 20.9797 7.32833 20.9394 7.23468C20.8991 7.14103 20.8401 7.05658 20.7661 6.98649C19.5773 5.8643 17.6086 5.13867 15.7505 5.13867C14.4157 5.1397 13.111 5.53534 12.0005 6.27586C10.7049 5.40714 9.1472 5.01699 7.59516 5.17252C6.04311 5.32805 4.59377 6.01953 3.49639 7.12805C2.84036 7.79779 2.32563 8.59254 1.98275 9.4651C1.63988 10.3377 1.47587 11.2702 1.50045 12.2074C1.53757 13.7893 1.88946 15.3478 2.53557 16.7922C3.18168 18.2365 4.10906 19.5376 5.26358 20.6196C5.95902 21.2767 6.88028 21.6415 7.83702 21.6387H16.057C16.5685 21.6396 17.0747 21.5355 17.5443 21.3328C18.0139 21.1301 18.4369 20.8331 18.787 20.4602C19.4356 19.7623 19.9966 18.9878 20.4576 18.154C21.1158 16.9512 21.0314 16.7637 20.9348 16.5377ZM17.6883 19.4384C17.4789 19.6607 17.226 19.8376 16.9454 19.958C16.6648 20.0785 16.3624 20.14 16.057 20.1387H7.83702C7.26399 20.1405 6.71218 19.922 6.29577 19.5284C5.28521 18.5822 4.47332 17.4442 3.90752 16.1808C3.34172 14.9174 3.03336 13.5539 3.00045 12.1699C2.97994 11.4346 3.10757 10.7027 3.37573 10.0177C3.64389 9.33272 4.04711 8.70869 4.56139 8.18274C5.04188 7.69186 5.61591 7.3023 6.24954 7.03709C6.88318 6.77188 7.56356 6.6364 8.25045 6.63867H8.32358C9.49195 6.65098 10.6221 7.05654 11.5317 7.78992C11.6647 7.89643 11.83 7.95446 12.0005 7.95446C12.1709 7.95446 12.3362 7.89643 12.4692 7.78992C13.3983 7.04082 14.557 6.63431 15.7505 6.63867C16.9423 6.65251 18.1083 6.98773 19.1255 7.60899C17.9067 8.97024 17.2505 10.4655 17.2505 11.8887C17.2505 14.1171 17.9667 15.8946 19.3298 17.073C18.9006 17.9371 18.3476 18.7339 17.6883 19.4384ZM12.022 3.45117C12.23 2.64559 12.7 1.93205 13.358 1.42288C14.016 0.913718 14.8247 0.637838 15.6567 0.638674H15.7505C15.9494 0.638674 16.1401 0.717691 16.2808 0.858344C16.4214 0.998996 16.5005 1.18976 16.5005 1.38867C16.5005 1.58759 16.4214 1.77835 16.2808 1.919C16.1401 2.05966 15.9494 2.13867 15.7505 2.13867H15.6567C15.1579 2.13863 14.6731 2.30437 14.2787 2.60983C13.8844 2.9153 13.6027 3.34316 13.478 3.82617C13.4282 4.01887 13.304 4.18392 13.1326 4.28501C12.9611 4.38611 12.7566 4.41496 12.5639 4.36524C12.3712 4.31551 12.2061 4.19127 12.1051 4.01985C12.004 3.84843 11.9751 3.64387 12.0248 3.45117H12.022Z" fill="#1F1F1F"/>
</g>
<defs>
<clipPath id="clip0_1938_731">
<rect width="24" height="24" fill="white" transform="translate(0 0.638672)"/>
</clipPath>
</defs>
</svg>
