<svg width="20" height="20" viewBox="0 0 20 20" fill="none" xmlns="http://www.w3.org/2000/svg">
<path d="M4.59865 18.9278C6.58614 18.9278 8.19731 17.4186 8.19731 15.5569C8.19731 13.6952 6.58614 12.186 4.59865 12.186C2.61117 12.186 1 13.6952 1 15.5569C1 17.4186 2.61117 18.9278 4.59865 18.9278Z" stroke="currentColor" stroke-width="0.5" stroke-miterlimit="10"/>
<path d="M15.8897 18.9278C17.8772 18.9278 19.4883 17.4186 19.4883 15.5569C19.4883 13.6952 17.8772 12.186 15.8897 12.186C13.9022 12.186 12.291 13.6952 12.291 15.5569C12.291 17.4186 13.9022 18.9278 15.8897 18.9278Z" stroke="currentColor" stroke-width="0.5" stroke-miterlimit="10"/>
<path d="M4.63477 15.5573L5.34021 7.62573H6.68115" stroke="currentColor" stroke-width="0.5" stroke-linecap="round" stroke-linejoin="round"/>
<path d="M9.64356 3.08014C10.2568 3.08014 10.7539 2.61448 10.7539 2.04007C10.7539 1.46565 10.2568 1 9.64356 1C9.03033 1 8.5332 1.46565 8.5332 2.04007C8.5332 2.61448 9.03033 3.08014 9.64356 3.08014Z" stroke="currentColor" stroke-width="0.5" stroke-miterlimit="10"/>
<path d="M6.78516 7.65851L8.30227 6.69991C8.68255 6.44315 9.01623 6.13071 9.29048 5.7746L9.96077 4.88222C10.0909 4.72474 10.2562 4.59582 10.4452 4.50449C10.6341 4.41316 10.842 4.36163 11.0545 4.35352C11.2591 4.36753 11.4558 4.43334 11.6236 4.54392C11.7914 4.65451 11.924 4.8057 12.0071 4.98137L13.6301 8.45173C13.7775 8.83852 13.765 9.26301 13.595 9.64157L13.5594 9.70744C13.3294 10.072 12.9842 10.3606 12.5716 10.5336L10.6311 11.3268C10.46 11.3949 10.3238 11.5225 10.2514 11.6828C10.179 11.8431 10.1759 12.0235 10.2428 12.1859L11.1603 14.3011C11.2321 14.4595 11.2469 14.6356 11.2023 14.8026C11.1578 14.9696 11.0564 15.1185 10.9134 15.2267C10.8374 15.2656 10.7537 15.2895 10.6675 15.2972C10.5813 15.3049 10.4943 15.2961 10.4118 15.2713C10.3294 15.2466 10.2531 15.2065 10.1876 15.1533C10.1222 15.1002 10.0689 15.0352 10.0311 14.9622L8.47881 12.2521C8.29624 11.9005 8.18838 11.519 8.16125 11.1289C8.18724 10.9486 8.25421 10.7756 8.35765 10.6216C8.46108 10.4676 8.59857 10.3361 8.76084 10.2361L10.3838 9.27789C10.5509 9.17012 10.6802 9.0185 10.7555 8.84208C10.8309 8.66566 10.8489 8.47232 10.8072 8.28636L10.278 6.3033" stroke="currentColor" stroke-width="0.5" stroke-linecap="round" stroke-linejoin="round"/>
<path d="M10.9144 15.2267L10.5613 16.2512C10.5008 16.4217 10.3885 16.572 10.2381 16.6835C10.0877 16.7951 9.90585 16.863 9.7148 16.8791C9.6293 16.8756 9.54559 16.855 9.46927 16.8187C9.39296 16.7824 9.32581 16.7313 9.27232 16.6687C9.21883 16.6061 9.18025 16.5336 9.15915 16.4559C9.13806 16.3782 9.13493 16.2972 9.15 16.2183L9.46756 14.004M12.4666 10.5669L11.1964 14.3673" stroke="currentColor" stroke-width="0.5" stroke-miterlimit="10"/>
</svg>
