<svg width="24" height="24" viewBox="0 0 24 24" fill="none" xmlns="http://www.w3.org/2000/svg">
<path d="M22.9503 14.0999C22.8715 14.159 22.7818 14.202 22.6864 14.2265C22.591 14.2509 22.4917 14.2563 22.3942 14.2424C22.2967 14.2285 22.2029 14.1955 22.1182 14.1453C22.0334 14.0951 21.9594 14.0287 21.9003 13.9499C21.4482 13.3423 20.8598 12.8493 20.1824 12.5106C19.5051 12.1719 18.7576 11.997 18.0003 11.9999C17.8528 11.9999 17.7086 11.9564 17.5857 11.8749C17.4628 11.7933 17.3667 11.6774 17.3093 11.5415C17.2704 11.4492 17.2504 11.3501 17.2504 11.2499C17.2504 11.1498 17.2704 11.0506 17.3093 10.9584C17.3667 10.8225 17.4628 10.7065 17.5857 10.625C17.7086 10.5434 17.8528 10.4999 18.0003 10.4999C18.4211 10.4999 18.8335 10.3818 19.1906 10.1592C19.5476 9.93653 19.8351 9.61819 20.0204 9.24034C20.2056 8.86248 20.2812 8.44025 20.2385 8.02161C20.1958 7.60296 20.0365 7.20468 19.7788 6.87201C19.5211 6.53933 19.1753 6.2856 18.7806 6.13963C18.3859 5.99365 17.9582 5.96129 17.546 6.04622C17.1338 6.13115 16.7538 6.32996 16.4489 6.62007C16.1441 6.91018 15.9267 7.27997 15.8215 7.68742C15.7969 7.78284 15.7537 7.87247 15.6945 7.95119C15.6352 8.02992 15.561 8.09621 15.4761 8.14626C15.3913 8.19632 15.2974 8.22917 15.1998 8.24293C15.1022 8.2567 15.0029 8.25111 14.9075 8.22649C14.8121 8.20186 14.7224 8.15869 14.6437 8.09943C14.565 8.04016 14.4987 7.96598 14.4486 7.8811C14.3986 7.79622 14.3657 7.70231 14.352 7.60474C14.3382 7.50717 14.3438 7.40784 14.3684 7.31242C14.5144 6.7474 14.7903 6.22426 15.1741 5.78463C15.5579 5.34499 16.039 5.00099 16.5791 4.78C17.1192 4.55901 17.7034 4.46713 18.2853 4.51167C18.8672 4.55621 19.4307 4.73594 19.9309 5.03656C20.431 5.33718 20.8542 5.75039 21.1666 6.24332C21.479 6.73624 21.672 7.29527 21.7303 7.87593C21.7887 8.45659 21.7107 9.04285 21.5026 9.58806C21.2944 10.1333 20.9619 10.6224 20.5315 11.0165C21.5514 11.458 22.4379 12.1587 23.1031 13.049C23.1622 13.128 23.2051 13.2179 23.2294 13.3135C23.2537 13.4091 23.2589 13.5085 23.2447 13.6062C23.2305 13.7038 23.1972 13.7976 23.1467 13.8824C23.0962 13.9671 23.0294 14.041 22.9503 14.0999ZM17.899 19.8749C17.9533 19.9603 17.9897 20.0557 18.0062 20.1556C18.0226 20.2554 18.0186 20.3575 17.9946 20.4557C17.9705 20.554 17.9268 20.6463 17.8661 20.7272C17.8054 20.8082 17.729 20.876 17.6414 20.9266C17.5539 20.9772 17.4569 21.0096 17.3565 21.0218C17.2561 21.034 17.1543 21.0258 17.0571 20.9976C16.96 20.9694 16.8695 20.9219 16.7912 20.8578C16.713 20.7938 16.6484 20.7146 16.6015 20.6249C16.1291 19.8249 15.4562 19.1619 14.6493 18.7014C13.8424 18.2408 12.9294 17.9986 12.0003 17.9986C11.0712 17.9986 10.1582 18.2408 9.35126 18.7014C8.54436 19.1619 7.87149 19.8249 7.39903 20.6249C7.35215 20.7146 7.28762 20.7938 7.20932 20.8578C7.13102 20.9219 7.04058 20.9694 6.94344 20.9976C6.84629 21.0258 6.74445 21.034 6.64403 21.0218C6.54362 21.0096 6.44671 20.9772 6.35914 20.9266C6.27156 20.876 6.19513 20.8082 6.13445 20.7272C6.07376 20.6463 6.03007 20.554 6.00601 20.4557C5.98194 20.3575 5.978 20.2554 5.99441 20.1556C6.01083 20.0557 6.04727 19.9603 6.10153 19.8749C6.82866 18.6256 7.93734 17.6424 9.26466 17.0699C8.51778 16.4981 7.96887 15.7066 7.6951 14.8066C7.42132 13.9067 7.43644 12.9436 7.73833 12.0527C8.04022 11.1618 8.6137 10.3879 9.37816 9.83981C10.1426 9.29169 11.0596 8.99692 12.0003 8.99692C12.9409 8.99692 13.8579 9.29169 14.6224 9.83981C15.3869 10.3879 15.9603 11.1618 16.2622 12.0527C16.5641 12.9436 16.5792 13.9067 16.3055 14.8066C16.0317 15.7066 15.4828 16.4981 14.7359 17.0699C16.0632 17.6424 17.1719 18.6256 17.899 19.8749ZM12.0003 16.4999C12.5936 16.4999 13.1736 16.324 13.667 15.9943C14.1603 15.6647 14.5449 15.1962 14.7719 14.648C14.999 14.0998 15.0584 13.4966 14.9426 12.9147C14.8269 12.3327 14.5412 11.7982 14.1216 11.3786C13.702 10.959 13.1675 10.6733 12.5856 10.5576C12.0036 10.4418 11.4004 10.5012 10.8522 10.7283C10.3041 10.9553 9.83552 11.3399 9.50588 11.8332C9.17623 12.3266 9.00028 12.9066 9.00028 13.4999C9.00028 14.2956 9.31635 15.0586 9.87896 15.6212C10.4416 16.1839 11.2046 16.4999 12.0003 16.4999ZM6.75028 11.2499C6.75028 11.051 6.67127 10.8602 6.53061 10.7196C6.38996 10.5789 6.1992 10.4999 6.00028 10.4999C5.57947 10.4999 5.16709 10.3818 4.81 10.1592C4.45292 9.93653 4.16543 9.61819 3.98019 9.24034C3.79495 8.86248 3.71939 8.44025 3.76209 8.02161C3.8048 7.60296 3.96405 7.20468 4.22176 6.87201C4.47947 6.53933 4.82531 6.2856 5.22 6.13963C5.61469 5.99365 6.04241 5.96129 6.45457 6.04622C6.86672 6.13115 7.2468 6.32996 7.55164 6.62007C7.85647 6.91018 8.07383 7.27997 8.17903 7.68742C8.22876 7.88012 8.353 8.04517 8.52442 8.14626C8.69584 8.24736 8.9004 8.27621 9.0931 8.22649C9.28579 8.17676 9.45084 8.05252 9.55194 7.8811C9.65303 7.70968 9.68189 7.50512 9.63216 7.31242C9.48614 6.7474 9.21026 6.22426 8.82648 5.78463C8.4427 5.34499 7.96161 5.00099 7.42149 4.78C6.88137 4.55901 6.29712 4.46713 5.71524 4.51167C5.13336 4.55621 4.56991 4.73594 4.06972 5.03656C3.56952 5.33718 3.14639 5.75039 2.83399 6.24332C2.52159 6.73624 2.32855 7.29527 2.27022 7.87593C2.2119 8.45659 2.2899 9.04285 2.49801 9.58806C2.70613 10.1333 3.03862 10.6224 3.46903 11.0165C2.45024 11.4585 1.5647 12.1591 0.900284 13.049C0.780813 13.2081 0.729448 13.4082 0.757491 13.6052C0.785533 13.8022 0.890686 13.98 1.04982 14.0995C1.20895 14.2189 1.40902 14.2703 1.60602 14.2422C1.80302 14.2142 1.98081 14.1091 2.10028 13.9499C2.55233 13.3423 3.14073 12.8493 3.81812 12.5106C4.49551 12.1719 5.24295 11.997 6.00028 11.9999C6.1992 11.9999 6.38996 11.9209 6.53061 11.7803C6.67127 11.6396 6.75028 11.4488 6.75028 11.2499Z" fill="#1F1F1F"/>
</svg>
