<svg width="20" height="20" viewBox="0 0 20 20" fill="none" xmlns="http://www.w3.org/2000/svg">
<path d="M18.829 10.861C19 10.448 19 9.923 19 8.875C19 7.827 19 7.302 18.829 6.889C18.7159 6.61593 18.5502 6.36782 18.3412 6.15883C18.1322 5.94984 17.8841 5.78407 17.611 5.671C17.198 5.5 16.673 5.5 15.625 5.5H9.1C7.84 5.5 7.21 5.5 6.729 5.745C6.30526 5.96078 5.96078 6.30526 5.745 6.729C5.5 7.209 5.5 7.839 5.5 9.1V15.625C5.5 16.673 5.5 17.198 5.671 17.611C5.9 18.162 6.338 18.601 6.889 18.829C7.302 19 7.827 19 8.875 19C9.923 19 10.448 19 10.861 18.829M18.829 10.861C18.7159 11.1341 18.5502 11.3822 18.3412 11.5912C18.1322 11.8002 17.8841 11.9659 17.611 12.079C17.198 12.25 16.673 12.25 15.625 12.25C14.577 12.25 14.052 12.25 13.639 12.421C13.3659 12.5341 13.1178 12.6998 12.9088 12.9088C12.6998 13.1178 12.5341 13.3659 12.421 13.639C12.25 14.052 12.25 14.577 12.25 15.625C12.25 16.673 12.25 17.198 12.079 17.611C11.9659 17.8841 11.8002 18.1322 11.5912 18.3412C11.3822 18.5502 11.1341 18.7159 10.861 18.829M18.829 10.861C18.291 12.7159 17.3015 14.4084 15.949 15.7871C14.5965 17.1658 12.9232 18.1876 11.079 18.761L10.861 18.829M14.5 5.5V4.6C14.5 3.34 14.5 2.71 14.255 2.229C14.0395 1.80541 13.6954 1.46095 13.272 1.245C12.79 1 12.16 1 10.9 1H4.6C3.34 1 2.71 1 2.229 1.245C1.80526 1.46078 1.46078 1.80526 1.245 2.229C1 2.709 1 3.339 1 4.6V10.9C1 12.16 1 12.79 1.245 13.271C1.461 13.695 1.805 14.039 2.229 14.255C2.709 14.5 3.34 14.5 4.601 14.5H5.5" stroke="#FE3D5F" stroke-width="1.5" stroke-linecap="round" stroke-linejoin="round"/>
</svg>
