<svg width="27" height="26" viewBox="0 0 27 26" fill="none" xmlns="http://www.w3.org/2000/svg">
<g clip-path="url(#clip0_1993_397)">
<path d="M12.3242 0L14.989 0.0065C16.0394 0.1287 16.9601 0.6045 17.7188 1.4079C18.3384 2.0631 18.6637 2.8249 18.6826 3.6543H26.0739C26.3207 3.65568 26.5569 3.75132 26.7305 3.92024C26.9042 4.08915 27.0011 4.31752 27 4.5552C27.0007 4.79265 26.9036 5.02069 26.73 5.18932C26.5564 5.35796 26.3205 5.45342 26.0739 5.4548L23.5953 5.4535V20.5686C23.5953 23.8745 22.3141 26 19.49 26H7.31565C4.49145 26 3.23055 23.8862 3.23055 20.5686V5.4535H0.9261C0.679988 5.45213 0.444442 5.35701 0.270918 5.18894C0.0973941 5.02087 -4.13544e-06 4.7935 1.31693e-10 4.5565C1.31693e-10 4.0586 0.41445 3.6569 0.9261 3.6569H8.3106C8.3295 2.9887 8.58735 2.3114 9.0585 1.6419C9.7605 0.6435 10.8567 0.0962 12.3242 0ZM21.7431 5.4535H5.0814V20.5686C5.0814 23.023 5.7834 24.2008 7.31565 24.2008H19.49C21.0276 24.2008 21.7445 23.0126 21.7445 20.5686L21.7431 5.4535ZM9.0666 8.242C9.5769 8.242 9.99135 8.645 9.99135 9.1416V19.6066C9.99207 19.844 9.89499 20.0721 9.72139 20.2407C9.54778 20.4094 9.31183 20.5048 9.06525 20.5062C8.8189 20.5045 8.5833 20.4089 8.40999 20.2403C8.23668 20.0717 8.13978 19.8438 8.1405 19.6066V9.1416C8.1405 8.645 8.5563 8.242 9.0666 8.242ZM12.7453 8.242C13.2584 8.242 13.6714 8.645 13.6714 9.1416V19.6066C13.6722 19.844 13.5751 20.0721 13.4015 20.2407C13.2279 20.4094 12.9919 20.5048 12.7453 20.5062C12.499 20.5045 12.2634 20.4089 12.0901 20.2403C11.9168 20.0717 11.8199 19.8438 11.8206 19.6066V9.1416C11.8206 8.645 12.2351 8.242 12.7453 8.242ZM16.4282 8.242C16.9384 8.242 17.3529 8.645 17.3529 9.1416V19.6066C17.3536 19.8438 17.2567 20.0717 17.0834 20.2403C16.9101 20.4089 16.6745 20.5045 16.4282 20.5062C16.1816 20.5048 15.9456 20.4094 15.772 20.2407C15.5984 20.0721 15.5013 19.844 15.5021 19.6066V9.1416C15.5013 8.90415 15.5984 8.67611 15.772 8.50748C15.9456 8.33884 16.1816 8.24338 16.4282 8.242ZM12.3876 1.7966C11.5209 1.8551 10.9499 2.1398 10.5867 2.6572C10.3194 3.0355 10.1858 3.3631 10.1642 3.6556L16.8305 3.6543C16.8116 3.276 16.6563 2.9432 16.3552 2.6247C15.8882 2.1307 15.3698 1.8629 14.8797 1.7992L12.3876 1.7966Z" fill="#FF1111"/>
</g>
<defs>
<clipPath id="clip0_1993_397">
<rect width="27" height="26" fill="white"/>
</clipPath>
</defs>
</svg>
