<svg width="18" height="18" viewBox="0 0 18 18" fill="none" xmlns="http://www.w3.org/2000/svg">
<path d="M9 10.8C8.8576 10.8 8.7184 10.7578 8.59999 10.6787C8.48159 10.5995 8.3893 10.4871 8.33481 10.3555C8.28031 10.224 8.26606 10.0792 8.29384 9.93953C8.32162 9.79987 8.39019 9.67157 8.49089 9.57088C8.59158 9.47019 8.71987 9.40161 8.85954 9.37383C8.9992 9.34605 9.14397 9.36031 9.27553 9.4148C9.4071 9.4693 9.51955 9.56158 9.59866 9.67999C9.67778 9.79839 9.72 9.9376 9.72 10.08C9.72 10.271 9.64415 10.4541 9.50912 10.5891C9.37409 10.7241 9.19096 10.8 9 10.8ZM18 9C18 10.78 17.4722 12.5201 16.4832 14.0001C15.4943 15.4802 14.0887 16.6337 12.4442 17.3149C10.7996 17.9961 8.99002 18.1743 7.24419 17.8271C5.49836 17.4798 3.89471 16.6226 2.63604 15.364C1.37737 14.1053 0.520203 12.5016 0.172937 10.7558C-0.17433 9.00998 0.00389942 7.20038 0.685088 5.55585C1.36628 3.91131 2.51983 2.50571 3.99987 1.51677C5.47991 0.527841 7.21997 0 9 0C11.3861 0.00262044 13.6738 0.951673 15.3611 2.63893C17.0483 4.32619 17.9974 6.61385 18 9ZM0.720004 9C0.720004 9.2718 0.733204 9.54 0.759604 9.8046C2.97263 7.6717 5.92645 6.47997 9 6.47997C12.0736 6.47997 15.0274 7.6717 17.2404 9.8046C17.2668 9.54 17.28 9.2718 17.28 9C17.28 6.80401 16.4076 4.69796 14.8548 3.14515C13.302 1.59235 11.196 0.72 9 0.72C6.80401 0.72 4.69796 1.59235 3.14516 3.14515C1.59236 4.69796 0.720004 6.80401 0.720004 9ZM7.7175 17.181L5.958 12.474C5.93231 12.4052 5.88622 12.346 5.82589 12.3042C5.76557 12.2623 5.69391 12.2399 5.6205 12.24H1.3806C1.93275 13.5323 2.80369 14.6635 3.91195 15.5276C5.02021 16.3917 6.32956 16.9606 7.7175 17.181ZM9 17.28C9.1602 17.28 9.3195 17.2746 9.477 17.2656L11.367 12.2211C11.4442 12.015 11.5826 11.8374 11.7635 11.7121C11.9445 11.5868 12.1594 11.5198 12.3795 11.52H16.8876C16.9748 11.2477 17.0478 10.971 17.1063 10.6911C16.0633 9.58886 14.8066 8.7109 13.4128 8.11088C12.019 7.51087 10.5175 7.2014 9 7.2014C7.48254 7.2014 5.98103 7.51087 4.58723 8.11088C3.19344 8.7109 1.93666 9.58886 0.893704 10.6911C0.952242 10.971 1.02524 11.2477 1.1124 11.52H5.6205C5.84056 11.52 6.05536 11.5873 6.23615 11.7127C6.41693 11.8382 6.55508 12.0159 6.6321 12.222L8.5221 17.262C8.6778 17.2746 8.838 17.28 9 17.28ZM16.6194 12.24H12.3795C12.3061 12.2399 12.2344 12.2623 12.1741 12.3042C12.1138 12.346 12.0677 12.4052 12.042 12.474L10.278 17.181C11.6669 16.9617 12.9774 16.3933 14.0865 15.5291C15.1957 14.6649 16.0672 13.5331 16.6194 12.24Z" fill="currentColor"/>
</svg>
