<svg width="25" height="25" viewBox="0 0 25 25" fill="none" xmlns="http://www.w3.org/2000/svg">
<path d="M21.8477 12.752C21.8478 14.8711 21.1001 16.9224 19.7363 18.5444C18.3725 20.1664 16.4801 21.2552 14.3924 21.6189C12.3047 21.9826 10.1556 21.598 8.32367 20.5328C6.4917 19.4676 5.09437 17.7901 4.3778 15.7957C3.66122 13.8014 3.67137 11.6182 4.40645 9.6306C5.14152 7.64302 6.55438 5.97858 8.39617 4.93042C10.238 3.88227 12.3905 3.51764 14.4748 3.90076C16.559 4.28389 18.4412 5.39019 19.7898 7.0248C19.8568 7.10014 19.9079 7.1882 19.94 7.28372C19.9722 7.37924 19.9848 7.48026 19.977 7.58075C19.9693 7.68124 19.9413 7.77913 19.8949 7.86858C19.8485 7.95804 19.7845 8.03721 19.7067 8.10138C19.629 8.16555 19.5392 8.21339 19.4425 8.24206C19.3459 8.27072 19.2445 8.27962 19.1444 8.26821C19.0442 8.2568 18.9474 8.22533 18.8597 8.17567C18.772 8.12601 18.6952 8.05918 18.6339 7.97918C17.5308 6.64166 15.9984 5.72762 14.2974 5.39254C12.5964 5.05745 10.8318 5.32203 9.30387 6.14126C7.77593 6.96048 6.57899 8.28376 5.91668 9.88597C5.25437 11.4882 5.1676 13.2704 5.67112 14.9294C6.17464 16.5883 7.23736 18.0216 8.67849 18.9854C10.1196 19.9492 11.8501 20.384 13.5757 20.2157C15.3012 20.0475 16.9151 19.2866 18.1429 18.0626C19.3708 16.8386 20.1366 15.227 20.3102 13.502H12.8477C12.6487 13.502 12.458 13.423 12.3173 13.2823C12.1767 13.1417 12.0977 12.9509 12.0977 12.752C12.0977 12.5531 12.1767 12.3623 12.3173 12.2217C12.458 12.081 12.6487 12.002 12.8477 12.002H21.0977C21.2966 12.002 21.4873 12.081 21.628 12.2217C21.7686 12.3623 21.8477 12.5531 21.8477 12.752Z" fill="#1F1F1F"/>
</svg>
