<svg width="24" height="25" viewBox="0 0 24 25" fill="none" xmlns="http://www.w3.org/2000/svg">
<path d="M12 2.38867C10.0716 2.38867 8.18657 2.9605 6.58319 4.03184C4.97982 5.10319 3.73013 6.62593 2.99218 8.40751C2.25422 10.1891 2.06114 12.1495 2.43735 14.0408C2.81355 15.9321 3.74215 17.6694 5.10571 19.033C6.46928 20.3965 8.20656 21.3251 10.0979 21.7013C11.9892 22.0775 13.9496 21.8845 15.7312 21.1465C17.5127 20.4085 19.0355 19.1589 20.1068 17.5555C21.1782 15.9521 21.75 14.067 21.75 12.1387C21.7473 9.55365 20.7192 7.07528 18.8913 5.2474C17.0634 3.41951 14.585 2.3914 12 2.38867ZM12 3.88867C13.3731 3.88924 14.7243 4.2325 15.9311 4.88733C17.138 5.54216 18.1623 6.48785 18.9113 7.63867H12C11.0527 7.63973 10.1299 7.93921 9.36245 8.49457C8.59505 9.04993 8.02211 9.83294 7.725 10.7324L5.56125 6.98242C6.33355 6.01664 7.31332 5.23707 8.42793 4.70151C9.54254 4.16595 10.7634 3.88814 12 3.88867ZM15 12.1387C15 12.732 14.8241 13.312 14.4944 13.8054C14.1648 14.2987 13.6962 14.6832 13.1481 14.9103C12.5999 15.1374 11.9967 15.1968 11.4147 15.081C10.8328 14.9653 10.2982 14.6795 9.87868 14.26C9.45913 13.8404 9.1734 13.3059 9.05765 12.7239C8.94189 12.142 9.0013 11.5388 9.22837 10.9906C9.45543 10.4424 9.83995 9.97391 10.3333 9.64426C10.8266 9.31462 11.4067 9.13867 12 9.13867C12.7957 9.13867 13.5587 9.45474 14.1213 10.0174C14.6839 10.58 15 11.343 15 12.1387ZM3.75 12.1387C3.74845 10.8396 4.05564 9.55881 4.64625 8.4018L8.10282 14.3887C8.10844 14.398 8.115 14.4065 8.12063 14.4149C8.59703 15.2278 9.31654 15.8706 10.1777 16.2527C11.0389 16.6348 11.9983 16.7371 12.9206 16.5449L10.755 20.2949C8.80632 19.9947 7.0292 19.0076 5.74458 17.5119C4.45996 16.0161 3.75252 14.1103 3.75 12.1387ZM12.4397 20.3765L15.8972 14.3887C15.9047 14.3755 15.9103 14.3624 15.9178 14.3493C16.3817 13.5313 16.5769 12.5883 16.476 11.6534C16.375 10.7184 15.9831 9.83883 15.3553 9.13867H19.6875C20.162 10.3545 20.3413 11.6656 20.2106 12.9643C20.08 14.2629 19.643 15.512 18.9358 16.6089C18.2285 17.7058 17.271 18.6193 16.1421 19.2742C15.0131 19.9292 13.7449 20.307 12.4416 20.3765H12.4397Z" fill="#1F1F1F"/>
</svg>
