<svg width="24" height="24" viewBox="0 0 24 24" fill="none" xmlns="http://www.w3.org/2000/svg">
<path d="M13.5 15.5C13.5 14.557 13.5 14.086 13.793 13.793C14.086 13.5 14.557 13.5 15.5 13.5H20C20.943 13.5 21.414 13.5 21.707 13.793C22 14.086 22 14.557 22 15.5V20C22 20.943 22 21.414 21.707 21.707C21.414 22 20.943 22 20 22H15.5C14.557 22 14.086 22 13.793 21.707C13.5 21.414 13.5 20.943 13.5 20V15.5ZM2 4C2 3.057 2 2.586 2.293 2.293C2.586 2 3.057 2 4 2H8.5C9.443 2 9.914 2 10.207 2.293C10.5 2.586 10.5 3.057 10.5 4V8.5C10.5 9.443 10.5 9.914 10.207 10.207C9.914 10.5 9.443 10.5 8.5 10.5H4C3.057 10.5 2.586 10.5 2.293 10.207C2 9.914 2 9.443 2 8.5V4ZM2 15.5C2 14.557 2 14.086 2.293 13.793C2.586 13.5 3.057 13.5 4 13.5H8.5C9.443 13.5 9.914 13.5 10.207 13.793C10.5 14.086 10.5 14.557 10.5 15.5V20C10.5 20.943 10.5 21.414 10.207 21.707C9.914 22 9.443 22 8.5 22H4C3.057 22 2.586 22 2.293 21.707C2 21.414 2 20.943 2 20V15.5ZM13.5 4C13.5 3.057 13.5 2.586 13.793 2.293C14.086 2 14.557 2 15.5 2H20C20.943 2 21.414 2 21.707 2.293C22 2.586 22 3.057 22 4V8.5C22 9.443 22 9.914 21.707 10.207C21.414 10.5 20.943 10.5 20 10.5H15.5C14.557 10.5 14.086 10.5 13.793 10.207C13.5 9.914 13.5 9.443 13.5 8.5V4Z" stroke="black" stroke-width="1.5" stroke-linecap="round" stroke-linejoin="round"/>
</svg>
