<svg width="32" height="36" viewBox="0 0 32 36" fill="none" xmlns="http://www.w3.org/2000/svg">
<path d="M15.9997 30.6001L15.4877 29.9521C15.1677 29.5921 7.67969 19.6561 7.67969 13.6801C7.67969 8.49607 11.3917 4.32007 15.9997 4.32007C20.6077 4.32007 24.3197 8.49607 24.3197 13.6801C24.3197 19.6561 16.8317 29.5921 16.5117 30.0241L15.9997 30.6001ZM15.9997 5.76007C12.0957 5.76007 8.95969 9.28807 8.95969 13.6801C8.95969 18.2881 14.3357 26.0641 15.9997 28.3681C17.6637 26.0641 23.0397 18.2881 23.0397 13.6801C23.0397 9.28807 19.9037 5.76007 15.9997 5.76007Z" fill="black"/>
<path d="M16.0008 17.2801C14.2088 17.2801 12.8008 15.6961 12.8008 13.6801C12.8008 11.6641 14.2088 10.0801 16.0008 10.0801C17.7928 10.0801 19.2008 11.6641 19.2008 13.6801C19.2008 15.6961 17.7928 17.2801 16.0008 17.2801ZM16.0008 11.5201C14.9128 11.5201 14.0808 12.4561 14.0808 13.6801C14.0808 14.9041 14.9128 15.8401 16.0008 15.8401C17.0888 15.8401 17.9208 14.9041 17.9208 13.6801C17.9208 12.4561 17.0888 11.5201 16.0008 11.5201Z" fill="black"/>
</svg>
