<svg width="25" height="24" viewBox="0 0 25 24" fill="none" xmlns="http://www.w3.org/2000/svg">
<path d="M22.2327 8.37562L13.2327 2.37562C13.1094 2.29339 12.9646 2.24951 12.8164 2.24951C12.6682 2.24951 12.5234 2.29339 12.4002 2.37562L3.40016 8.37562C3.29742 8.44417 3.21319 8.53703 3.15497 8.64595C3.09675 8.75488 3.06633 8.87649 3.06641 9V18.75C3.06641 19.1478 3.22444 19.5294 3.50575 19.8107C3.78705 20.092 4.16858 20.25 4.56641 20.25H21.0664C21.4642 20.25 21.8458 20.092 22.1271 19.8107C22.4084 19.5294 22.5664 19.1478 22.5664 18.75V9C22.5665 8.87649 22.5361 8.75488 22.4778 8.64595C22.4196 8.53703 22.3354 8.44417 22.2327 8.37562ZM9.88391 14.25L4.56641 18V10.4559L9.88391 14.25ZM11.4186 15H14.2142L19.5233 18.75H6.10953L11.4186 15ZM15.7489 14.25L21.0664 10.4559V18L15.7489 14.25ZM12.8164 3.90094L20.4955 9.02062L14.2142 13.5H11.4205L5.13922 9.02062L12.8164 3.90094Z" fill="#1F1F1F"/>
</svg>
