<svg width="25" height="25" viewBox="0 0 25 25" fill="none" xmlns="http://www.w3.org/2000/svg">
<path d="M20.8786 16.7971C20.3583 15.9009 19.5849 13.3649 19.5849 10.0527C19.5849 8.06361 18.7947 6.15596 17.3882 4.74943C15.9816 3.34291 14.074 2.55273 12.0849 2.55273C10.0957 2.55273 8.18807 3.34291 6.78155 4.74943C5.37503 6.15596 4.58485 8.06361 4.58485 10.0527C4.58485 13.3659 3.81048 15.9009 3.29016 16.7971C3.15729 17.025 3.08685 17.2838 3.08595 17.5476C3.08504 17.8113 3.1537 18.0707 3.28501 18.2994C3.41631 18.5282 3.60561 18.7183 3.83382 18.8505C4.06204 18.9828 4.32109 19.0525 4.58485 19.0527H8.41079C8.58383 19.8994 9.044 20.6604 9.71348 21.2069C10.383 21.7534 11.2206 22.0519 12.0849 22.0519C12.9491 22.0519 13.7867 21.7534 14.4562 21.2069C15.1257 20.6604 15.5859 19.8994 15.7589 19.0527H19.5849C19.8485 19.0524 20.1075 18.9825 20.3356 18.8502C20.5636 18.7179 20.7528 18.5278 20.884 18.299C21.0152 18.0703 21.0838 17.811 21.0828 17.5474C21.0819 17.2837 21.0114 17.0249 20.8786 16.7971ZM12.0849 20.5527C11.6197 20.5526 11.166 20.4083 10.7862 20.1397C10.4065 19.871 10.1193 19.4913 9.96423 19.0527H14.2055C14.0504 19.4913 13.7632 19.871 13.3835 20.1397C13.0037 20.4083 12.55 20.5526 12.0849 20.5527ZM4.58485 17.5527C5.30673 16.3115 6.08485 13.4352 6.08485 10.0527C6.08485 8.46144 6.71699 6.93531 7.84221 5.81009C8.96743 4.68488 10.4936 4.05273 12.0849 4.05273C13.6762 4.05273 15.2023 4.68488 16.3275 5.81009C17.4527 6.93531 18.0849 8.46144 18.0849 10.0527C18.0849 13.4324 18.8611 16.3087 19.5849 17.5527H4.58485Z" fill="#1F1F1F"/>
</svg>
