<svg width="18" height="18" viewBox="0 0 18 18" fill="none" xmlns="http://www.w3.org/2000/svg">
<path d="M7.71429 16.7143H16.7143V10.2857H12.5357C12.2679 10.2857 12.0402 10.192 11.8527 10.0045C11.6652 9.81696 11.5714 9.58929 11.5714 9.32143V5.14286H7.71429V16.7143ZM10.2857 2.25V1.60714C10.2857 1.52009 10.2539 1.44475 10.1903 1.38114C10.1267 1.31752 10.0513 1.28571 9.96429 1.28571H2.89286C2.8058 1.28571 2.73047 1.31752 2.66685 1.38114C2.60324 1.44475 2.57143 1.52009 2.57143 1.60714V2.25C2.57143 2.33705 2.60324 2.41239 2.66685 2.476C2.73047 2.53962 2.8058 2.57143 2.89286 2.57143H9.96429C10.0513 2.57143 10.1267 2.53962 10.1903 2.476C10.2539 2.41239 10.2857 2.33705 10.2857 2.25ZM12.8571 9H15.8605L12.8571 5.99665V9ZM18 10.2857V17.0357C18 17.3036 17.9062 17.5312 17.7188 17.7188C17.5312 17.9062 17.3036 18 17.0357 18H7.39286C7.125 18 6.89732 17.9062 6.70982 17.7188C6.52232 17.5312 6.42857 17.3036 6.42857 17.0357V15.4286H0.964286C0.696429 15.4286 0.46875 15.3348 0.28125 15.1473C0.09375 14.9598 0 14.7321 0 14.4643V0.964286C0 0.696429 0.09375 0.46875 0.28125 0.28125C0.46875 0.09375 0.696429 0 0.964286 0H11.8929C12.1607 0 12.3884 0.09375 12.5759 0.28125C12.7634 0.46875 12.8571 0.696429 12.8571 0.964286V4.25893C12.9978 4.34598 13.1183 4.43973 13.2188 4.54018L17.317 8.63839C17.5045 8.82589 17.6652 9.08036 17.7991 9.40179C17.933 9.72321 18 10.0179 18 10.2857Z" fill="#E82F53"/>
</svg>
