<svg width="24" height="24" viewBox="0 0 24 24" fill="none" xmlns="http://www.w3.org/2000/svg">
<path d="M23.2498 12.75C23.0509 12.75 22.8601 12.829 22.7195 12.9697C22.5788 13.1103 22.4998 13.3011 22.4998 13.5V15H18.3101L16.5936 13.2806L21.3129 8.56033C21.594 8.27905 21.7519 7.89767 21.7519 7.50002C21.7519 7.10236 21.594 6.72098 21.3129 6.4397L16.0629 1.18971C15.9236 1.05038 15.7583 0.939861 15.5762 0.864458C15.3942 0.789054 15.1992 0.750244 15.0021 0.750244C14.8051 0.750244 14.6101 0.789054 14.428 0.864458C14.246 0.939861 14.0807 1.05038 13.9414 1.18971L0.273552 14.9006C0.142745 15.0319 0.0537524 15.1989 0.01781 15.3807C-0.0181325 15.5624 0.00058751 15.7507 0.0716061 15.9219C0.142625 16.093 0.262757 16.2392 0.416834 16.3421C0.570911 16.445 0.752024 16.5 0.937302 16.5H4.62824L7.93949 19.8103C8.22077 20.0914 8.60215 20.2493 8.9998 20.2493C9.39746 20.2493 9.77884 20.0914 10.0601 19.8103L15.5304 14.3438L17.2498 16.0603C17.3886 16.2002 17.5538 16.3111 17.7358 16.3866C17.9178 16.4621 18.1131 16.5006 18.3101 16.5H22.4998V18C22.4998 18.1989 22.5788 18.3897 22.7195 18.5303C22.8601 18.671 23.0509 18.75 23.2498 18.75C23.4487 18.75 23.6395 18.671 23.7801 18.5303C23.9208 18.3897 23.9998 18.1989 23.9998 18V13.5C23.9998 13.3011 23.9208 13.1103 23.7801 12.9697C23.6395 12.829 23.4487 12.75 23.2498 12.75ZM14.9998 2.25002L16.1895 3.4397L4.62824 15H2.29293L14.9998 2.25002ZM8.9998 18.75L5.9998 15.75L17.2498 4.50002L20.2498 7.50002L8.9998 18.75Z" fill="#1F1F1F"/>
</svg>
