<svg width="24" height="25" viewBox="0 0 24 25" fill="none" xmlns="http://www.w3.org/2000/svg">
<path d="M20.7315 12.6387C21.2843 12.1455 21.6351 11.4651 21.7162 10.7286C21.7973 9.99217 21.603 9.25176 21.1707 8.65001C20.7385 8.04826 20.0988 7.62775 19.375 7.46948C18.6513 7.31121 17.8945 7.42637 17.2505 7.79278V5.88872C17.2498 5.27964 17.0638 4.6852 16.7171 4.18443C16.3704 3.68365 15.8795 3.30027 15.3096 3.08525C14.7398 2.87023 14.1179 2.83376 13.5269 2.98068C12.9358 3.12761 12.4034 3.45097 12.0005 3.90778C11.5073 3.35495 10.8269 3.0042 10.0904 2.9231C9.35398 2.842 8.61357 3.03628 8.01183 3.46853C7.41008 3.90077 6.98957 4.5404 6.8313 5.2642C6.67302 5.988 6.78818 6.74476 7.1546 7.38872H5.25053C4.64146 7.3894 4.04702 7.57546 3.54624 7.92216C3.04547 8.26886 2.66209 8.75977 2.44707 9.32963C2.23205 9.89949 2.19557 10.5213 2.3425 11.1124C2.48943 11.7035 2.81279 12.2359 3.2696 12.6387C2.71676 13.132 2.36601 13.8124 2.28491 14.5488C2.20381 15.2853 2.3981 16.0257 2.83035 16.6274C3.26259 17.2292 3.90222 17.6497 4.62602 17.808C5.34981 17.9662 6.10658 17.8511 6.75053 17.4847V19.3887C6.75122 19.9978 6.93728 20.5922 7.28398 21.093C7.63068 21.5938 8.12159 21.9772 8.69145 22.1922C9.26131 22.4072 9.88312 22.4437 10.4742 22.2967C11.0653 22.1498 11.5977 21.8265 12.0005 21.3697C12.4938 21.9225 13.1742 22.2732 13.9106 22.3543C14.6471 22.4354 15.3875 22.2411 15.9892 21.8089C16.591 21.3767 17.0115 20.737 17.1698 20.0132C17.328 19.2894 17.2129 18.5327 16.8465 17.8887H18.7505C19.3596 17.888 19.9541 17.702 20.4548 17.3553C20.9556 17.0086 21.339 16.5177 21.554 15.9478C21.769 15.3779 21.8055 14.7561 21.6586 14.165C21.5116 13.5739 21.1883 13.0416 20.7315 12.6387ZM6.75053 14.8887C6.75053 15.1854 6.66256 15.4754 6.49774 15.7221C6.33292 15.9687 6.09865 16.161 5.82456 16.2745C5.55047 16.3881 5.24887 16.4178 4.9579 16.3599C4.66693 16.302 4.39965 16.1592 4.18987 15.9494C3.98009 15.7396 3.83723 15.4723 3.77935 15.1814C3.72148 14.8904 3.75118 14.5888 3.86471 14.3147C3.97824 14.0406 4.1705 13.8063 4.41718 13.6415C4.66385 13.4767 4.95386 13.3887 5.25053 13.3887H6.75053V14.8887ZM11.2505 19.3887C11.2505 19.7865 11.0925 20.1681 10.8112 20.4494C10.5299 20.7307 10.1484 20.8887 9.75053 20.8887C9.35271 20.8887 8.97118 20.7307 8.68987 20.4494C8.40857 20.1681 8.25053 19.7865 8.25053 19.3887V14.8887C8.25053 14.4909 8.40857 14.1094 8.68987 13.8281C8.97118 13.5468 9.35271 13.3887 9.75053 13.3887H11.2505V19.3887ZM11.2505 11.8887H5.25053C4.85271 11.8887 4.47118 11.7307 4.18987 11.4494C3.90857 11.1681 3.75053 10.7865 3.75053 10.3887C3.75053 9.99089 3.90857 9.60936 4.18987 9.32806C4.47118 9.04675 4.85271 8.88872 5.25053 8.88872H9.75053C10.1484 8.88872 10.5299 9.04675 10.8112 9.32806C11.0925 9.60936 11.2505 9.99089 11.2505 10.3887V11.8887ZM11.2505 7.38872H9.75053C9.45386 7.38872 9.16385 7.30074 8.91718 7.13592C8.6705 6.9711 8.47825 6.73683 8.36471 6.46274C8.25118 6.18865 8.22148 5.88705 8.27936 5.59608C8.33723 5.30511 8.48009 5.03784 8.68987 4.82806C8.89965 4.61828 9.16693 4.47542 9.4579 4.41754C9.74887 4.35966 10.0505 4.38937 10.3246 4.5029C10.5986 4.61643 10.8329 4.80869 10.9977 5.05536C11.1626 5.30204 11.2505 5.59204 11.2505 5.88872V7.38872ZM12.7505 5.88872C12.7505 5.49089 12.9086 5.10936 13.1899 4.82806C13.4712 4.54675 13.8527 4.38872 14.2505 4.38872C14.6484 4.38872 15.0299 4.54675 15.3112 4.82806C15.5925 5.10936 15.7505 5.49089 15.7505 5.88872V10.3887C15.7505 10.7865 15.5925 11.1681 15.3112 11.4494C15.0299 11.7307 14.6484 11.8887 14.2505 11.8887H12.7505V5.88872ZM14.2505 20.8887C13.8527 20.8887 13.4712 20.7307 13.1899 20.4494C12.9086 20.1681 12.7505 19.7865 12.7505 19.3887V17.8887H14.2505C14.6484 17.8887 15.0299 18.0468 15.3112 18.3281C15.5925 18.6094 15.7505 18.9909 15.7505 19.3887C15.7505 19.7865 15.5925 20.1681 15.3112 20.4494C15.0299 20.7307 14.6484 20.8887 14.2505 20.8887ZM18.7505 16.3887H14.2505C13.8527 16.3887 13.4712 16.2307 13.1899 15.9494C12.9086 15.6681 12.7505 15.2865 12.7505 14.8887V13.3887H18.7505C19.1484 13.3887 19.5299 13.5468 19.8112 13.8281C20.0925 14.1094 20.2505 14.4909 20.2505 14.8887C20.2505 15.2865 20.0925 15.6681 19.8112 15.9494C19.5299 16.2307 19.1484 16.3887 18.7505 16.3887ZM18.7505 11.8887H17.2505V10.3887C17.2505 10.092 17.3385 9.80204 17.5033 9.55536C17.6682 9.30869 17.9024 9.11643 18.1765 9.0029C18.4506 8.88937 18.7522 8.85966 19.0432 8.91754C19.3341 8.97542 19.6014 9.11828 19.8112 9.32806C20.021 9.53784 20.1638 9.80511 20.2217 10.0961C20.2796 10.3871 20.2499 10.6887 20.1364 10.9627C20.0228 11.2368 19.8306 11.4711 19.5839 11.6359C19.3372 11.8007 19.0472 11.8887 18.7505 11.8887Z" fill="#1F1F1F"/>
</svg>
