<svg width="13" height="9" viewBox="0 0 13 9" fill="none" xmlns="http://www.w3.org/2000/svg">
<path fill-rule="evenodd" clip-rule="evenodd" d="M0.853198 0.475694C0.853198 0.349532 0.808253 0.228538 0.72825 0.139328C0.648247 0.0501176 0.53974 0 0.426599 0C0.313458 0 0.204951 0.0501176 0.124948 0.139328C0.0449451 0.228538 0 0.349532 0 0.475694V8.08681C0 8.21297 0.0449451 8.33396 0.124948 8.42317C0.204951 8.51238 0.313458 8.5625 0.426599 8.5625C0.53974 8.5625 0.648247 8.51238 0.72825 8.42317C0.808253 8.33396 0.853198 8.21297 0.853198 8.08681V7.29398H11.376V8.08681C11.376 8.21297 11.4209 8.33396 11.5009 8.42317C11.5809 8.51238 11.6894 8.5625 11.8026 8.5625C11.9157 8.5625 12.0242 8.51238 12.1042 8.42317C12.1842 8.33396 12.2292 8.21297 12.2292 8.08681V6.4815C12.2292 5.32207 12.2292 4.61424 12.0454 4.02818C11.8832 3.51114 11.6186 3.0415 11.2713 2.65411C10.924 2.26673 10.5029 1.97155 10.0393 1.79051C9.51372 1.58501 8.87894 1.58565 7.83918 1.58565H7.66854C7.28574 1.58565 6.98883 1.58501 6.73571 1.68332C6.51392 1.76994 6.31247 1.91117 6.14635 2.09652C5.98023 2.28187 5.85369 2.50658 5.77615 2.75395C5.68798 3.03556 5.68798 3.36665 5.68855 3.79414V6.34259H0.853767L0.853198 0.475694ZM11.376 6.34259H6.54118V3.87342C6.54118 3.32796 6.54687 3.17574 6.581 3.06791C6.61628 2.95549 6.67382 2.85338 6.74935 2.76916C6.82487 2.68494 6.91645 2.62077 7.01727 2.58144C7.11396 2.54338 7.25047 2.53704 7.73964 2.53704C8.91023 2.53704 9.38631 2.54338 9.75717 2.68863C10.0999 2.82231 10.4113 3.04037 10.6681 3.32663C10.9249 3.61289 11.1206 3.95999 11.2406 4.34214C11.3612 4.72777 11.3748 5.21742 11.376 6.34259Z" fill="#9A9E9F"/>
<path fill-rule="evenodd" clip-rule="evenodd" d="M3.27047 1.58569C2.78019 1.58569 2.30999 1.80287 1.96332 2.18945C1.61664 2.57602 1.42188 3.10033 1.42188 3.64704C1.42188 4.19374 1.61664 4.71805 1.96332 5.10462C2.30999 5.4912 2.78019 5.70838 3.27047 5.70838C3.76075 5.70838 4.23094 5.4912 4.57762 5.10462C4.9243 4.71805 5.11906 4.19374 5.11906 3.64704C5.11906 3.10033 4.9243 2.57602 4.57762 2.18945C4.23094 1.80287 3.76075 1.58569 3.27047 1.58569ZM2.27507 3.64704C2.27507 3.35266 2.37994 3.07034 2.56662 2.86218C2.75329 2.65402 3.00647 2.53708 3.27047 2.53708C3.53447 2.53708 3.78765 2.65402 3.97432 2.86218C4.161 3.07034 4.26587 3.35266 4.26587 3.64704C4.26587 3.94141 4.161 4.22374 3.97432 4.43189C3.78765 4.64005 3.53447 4.75699 3.27047 4.75699C3.00647 4.75699 2.75329 4.64005 2.56662 4.43189C2.37994 4.22374 2.27507 3.94141 2.27507 3.64704Z" fill="#9A9E9F"/>
</svg>
