<svg width="23" height="18" viewBox="0 0 23 18" fill="none" xmlns="http://www.w3.org/2000/svg">
<path d="M16.7969 0H5.85938C5.13417 0 4.43867 0.288085 3.92588 0.80088C3.41309 1.31367 3.125 2.00917 3.125 2.73438V16.7969C3.125 17.1077 3.24846 17.4057 3.46823 17.6255C3.688 17.8453 3.98607 17.9688 4.29688 17.9688H6.64062C6.95143 17.9688 7.2495 17.8453 7.46927 17.6255C7.68903 17.4057 7.8125 17.1077 7.8125 16.7969V14.8438H14.8438V16.7969C14.8438 17.1077 14.9672 17.4057 15.187 17.6255C15.4068 17.8453 15.7048 17.9688 16.0156 17.9688H18.3594C18.6702 17.9688 18.9682 17.8453 19.188 17.6255C19.4078 17.4057 19.5312 17.1077 19.5312 16.7969V2.73438C19.5312 2.00917 19.2432 1.31367 18.7304 0.80088C18.2176 0.288085 17.5221 0 16.7969 0ZM3.90625 14.0625V7.8125H18.75V14.0625H3.90625ZM18.75 7.03125H3.90625V3.90625H18.75V7.03125ZM7.03125 16.7969C7.03125 16.9005 6.9901 16.9998 6.91684 17.0731C6.84358 17.1463 6.74423 17.1875 6.64062 17.1875H4.29688C4.19327 17.1875 4.09392 17.1463 4.02066 17.0731C3.94741 16.9998 3.90625 16.9005 3.90625 16.7969V14.8438H7.03125V16.7969ZM18.3594 17.1875H16.0156C15.912 17.1875 15.8127 17.1463 15.7394 17.0731C15.6662 16.9998 15.625 16.9005 15.625 16.7969V14.8438H18.75V16.7969C18.75 16.9005 18.7088 16.9998 18.6356 17.0731C18.5623 17.1463 18.463 17.1875 18.3594 17.1875ZM18.75 3.125H3.90625V2.73438C3.90625 2.21637 4.11203 1.71959 4.47831 1.35331C4.84459 0.987025 5.34137 0.78125 5.85938 0.78125H16.7969C17.3149 0.78125 17.8117 0.987025 18.1779 1.35331C18.5442 1.71959 18.75 2.21637 18.75 2.73438V3.125ZM8.59375 10.9375C8.59375 11.092 8.54793 11.2431 8.46209 11.3715C8.37624 11.5 8.25423 11.6002 8.11147 11.6593C7.96872 11.7184 7.81163 11.7339 7.66009 11.7037C7.50854 11.6736 7.36933 11.5992 7.26007 11.4899C7.15081 11.3807 7.07641 11.2415 7.04626 11.0899C7.01612 10.9384 7.03159 10.7813 7.09072 10.6385C7.14985 10.4958 7.24998 10.3738 7.37846 10.2879C7.50694 10.2021 7.65798 10.1562 7.8125 10.1562C8.0197 10.1562 8.21841 10.2386 8.36493 10.3851C8.51144 10.5316 8.59375 10.7303 8.59375 10.9375ZM15.625 10.9375C15.625 11.092 15.5792 11.2431 15.4933 11.3715C15.4075 11.5 15.2855 11.6002 15.1427 11.6593C15 11.7184 14.8429 11.7339 14.6913 11.7037C14.5398 11.6736 14.4006 11.5992 14.2913 11.4899C14.1821 11.3807 14.1077 11.2415 14.0775 11.0899C14.0474 10.9384 14.0628 10.7813 14.122 10.6385C14.1811 10.4958 14.2812 10.3738 14.4097 10.2879C14.5382 10.2021 14.6892 10.1562 14.8438 10.1562C15.051 10.1562 15.2497 10.2386 15.3962 10.3851C15.5427 10.5316 15.625 10.7303 15.625 10.9375ZM22.6562 4.29688V6.64062C22.6562 6.74423 22.6151 6.84358 22.5418 6.91684C22.4686 6.9901 22.3692 7.03125 22.2656 7.03125C22.162 7.03125 22.0627 6.9901 21.9894 6.91684C21.9162 6.84358 21.875 6.74423 21.875 6.64062V4.29688C21.875 4.19327 21.9162 4.09392 21.9894 4.02066C22.0627 3.9474 22.162 3.90625 22.2656 3.90625C22.3692 3.90625 22.4686 3.9474 22.5418 4.02066C22.6151 4.09392 22.6562 4.19327 22.6562 4.29688ZM0.78125 4.29688V6.64062C0.78125 6.74423 0.740095 6.84358 0.666839 6.91684C0.593582 6.9901 0.494225 7.03125 0.390625 7.03125C0.287025 7.03125 0.187668 6.9901 0.114411 6.91684C0.041155 6.84358 0 6.74423 0 6.64062V4.29688C0 4.19327 0.041155 4.09392 0.114411 4.02066C0.187668 3.9474 0.287025 3.90625 0.390625 3.90625C0.494225 3.90625 0.593582 3.9474 0.666839 4.02066C0.740095 4.09392 0.78125 4.19327 0.78125 4.29688Z" fill="currentColor"/>
</svg>
